HIERARCHY
ROOT hip
{
  OFFSET 0 0 0
  CHANNELS 6 Xposition Yposition Zposition Zrotation Yrotation Xrotation
  JOINT abdomen
  {
    OFFSET 0 20.6881 -0.73152
    CHANNELS 3 Zrotation Xrotation Yrotation
    JOINT chest
    {
      OFFSET 0 11.7043 -0.48768
      CHANNELS 3 Zrotation Xrotation Yrotation
      JOINT neck
      {
        OFFSET 0 22.1894 -2.19456
        CHANNELS 3 Zrotation Xrotation Yrotation
        JOINT head
        {
          OFFSET -0.24384 7.07133 1.2192
          CHANNELS 3 Zrotation Xrotation Yrotation
          JOINT leftEye
          {
            OFFSET 4.14528 8.04674 8.04672
            CHANNELS 3 Zrotation Xrotation Yrotation
            End Site
            {
              OFFSET 1 0 0
            }
          }
          JOINT rightEye
          {
            OFFSET -3.6576 8.04674 8.04672
            CHANNELS 3 Zrotation Xrotation Yrotation
            End Site
            {
              OFFSET 1 0 0
            }
          }
        }
      }
      JOINT rCollar
      {
        OFFSET -2.68224 19.2634 -4.8768
        CHANNELS 3 Zrotation Xrotation Yrotation
        JOINT rShldr
        {
          OFFSET -8.77824 -1.95073 1.46304
          CHANNELS 3 Zrotation Xrotation Yrotation
          JOINT rForeArm
          {
            OFFSET -28.1742 -1.7115 0.48768
            CHANNELS 3 Zrotation Xrotation Yrotation
            JOINT rHand
            {
              OFFSET -22.5879 0.773209 7.07136
              CHANNELS 3 Zrotation Xrotation Yrotation
              JOINT rThumb1
              {
                OFFSET -1.2192 -0.487915 3.41376
                CHANNELS 3 Zrotation Xrotation Yrotation
                JOINT rThumb2
                {
                  OFFSET -3.37035 -0.52449 3.41376
                  CHANNELS 3 Zrotation Xrotation Yrotation
                  End Site
                  {
                    OFFSET -1.78271 -1.18214 1.43049
                  }
                }
              }
              JOINT rIndex1
              {
                OFFSET -7.75947 0.938293 5.60832
                CHANNELS 3 Zrotation Xrotation Yrotation
                JOINT rIndex2
                {
                  OFFSET -2.54057 -0.884171 1.56538
                  CHANNELS 3 Zrotation Xrotation Yrotation
                  End Site
                  {
                    OFFSET -1.62519 -0.234802 1.16502
                  }
                }
              }
              JOINT rMid1
              {
                OFFSET -8.24714 1.18213 3.41376
                CHANNELS 3 Zrotation Xrotation Yrotation
                JOINT rMid2
                {
                  OFFSET -3.10165 -0.590103 1.0647
                  CHANNELS 3 Zrotation Xrotation Yrotation
                  End Site
                  {
                    OFFSET -2.48547 -0.328903 0.83742
                  }
                }
              }
              JOINT rRing1
              {
                OFFSET -8.82822 0.546677 1.51678
                CHANNELS 3 Zrotation Xrotation Yrotation
                JOINT rRing2
                {
                  OFFSET -2.60934 -0.819778 -0.0198488
                  CHANNELS 3 Zrotation Xrotation Yrotation
                  End Site
                  {
                    OFFSET -2.33842 -0.294052 0.168128
                  }
                }
              }
              JOINT rPinky1
              {
                OFFSET -8.27202 -0.0477905 -0.4584
                CHANNELS 3 Zrotation Xrotation Yrotation
                JOINT rPinky2
                {
                  OFFSET -1.82734 -0.647385 -0.700984
                  CHANNELS 3 Zrotation Xrotation Yrotation
                  End Site
                  {
                    OFFSET -1.69225 -0.51767 -0.607171
                  }
                }
              }
            }
          }
        }
      }
      JOINT lCollar
      {
        OFFSET 2.68224 19.2634 -4.8768
        CHANNELS 3 Zrotation Xrotation Yrotation
        JOINT lShldr
        {
          OFFSET 8.77824 -1.95073 1.46304
          CHANNELS 3 Zrotation Xrotation Yrotation
          JOINT lForeArm
          {
            OFFSET 28.1742 -1.7115 0.48768
            CHANNELS 3 Zrotation Xrotation Yrotation
            JOINT lHand
            {
              OFFSET 22.5879 0.773209 7.07136
              CHANNELS 3 Zrotation Xrotation Yrotation
              JOINT lThumb1
              {
                OFFSET 1.2192 -0.487915 3.41376
                CHANNELS 3 Zrotation Xrotation Yrotation
                JOINT lThumb2
                {
                  OFFSET 3.37035 -0.52449 3.41376
                  CHANNELS 3 Zrotation Xrotation Yrotation
                  End Site
                  {
                    OFFSET 1.78271 -1.18214 1.43049
                  }
                }
              }
              JOINT lIndex1
              {
                OFFSET 7.75947 0.938293 5.60832
                CHANNELS 3 Zrotation Xrotation Yrotation
                JOINT lIndex2
                {
                  OFFSET 2.54057 -0.884171 1.56538
                  CHANNELS 3 Zrotation Xrotation Yrotation
                  End Site
                  {
                    OFFSET 1.62519 -0.234802 1.16502
                  }
                }
              }
              JOINT lMid1
              {
                OFFSET 8.24714 1.18213 3.41376
                CHANNELS 3 Zrotation Xrotation Yrotation
                JOINT lMid2
                {
                  OFFSET 3.10165 -0.590103 1.0647
                  CHANNELS 3 Zrotation Xrotation Yrotation
                  End Site
                  {
                    OFFSET 2.48547 -0.328903 0.83742
                  }
                }
              }
              JOINT lRing1
              {
                OFFSET 8.82822 0.546677 1.51678
                CHANNELS 3 Zrotation Xrotation Yrotation
                JOINT lRing2
                {
                  OFFSET 2.60934 -0.819778 -0.0198488
                  CHANNELS 3 Zrotation Xrotation Yrotation
                  End Site
                  {
                    OFFSET 2.33842 -0.294052 0.168128
                  }
                }
              }
              JOINT lPinky1
              {
                OFFSET 8.27202 -0.0477905 -0.4584
                CHANNELS 3 Zrotation Xrotation Yrotation
                JOINT lPinky2
                {
                  OFFSET 1.82734 -0.647385 -0.700984
                  CHANNELS 3 Zrotation Xrotation Yrotation
                  End Site
                  {
                    OFFSET 1.69225 -0.51767 -0.607171
                  }
                }
              }
            }
          }
        }
      }
    }
  }
  JOINT rButtock
  {
    OFFSET -8.77824 4.35084 1.2192
    CHANNELS 3 Zrotation Xrotation Yrotation
    JOINT rThigh
    {
      OFFSET 0 -1.70687 -2.19456
      CHANNELS 3 Zrotation Xrotation Yrotation
      JOINT rShin
      {
        OFFSET 0 -36.8199 0.73152
        CHANNELS 3 Zrotation Xrotation Yrotation
        JOINT rFoot
        {
          OFFSET 0.73152 -45.1104 -5.12064
          CHANNELS 3 Zrotation Xrotation Yrotation
          End Site
          {
            OFFSET -1.1221 -3.69964 12.103
          }
        }
      }
    }
  }
  JOINT lButtock
  {
    OFFSET 8.77824 4.35084 1.2192
    CHANNELS 3 Zrotation Xrotation Yrotation
    JOINT lThigh
    {
      OFFSET 0 -1.70687 -2.19456
      CHANNELS 3 Zrotation Xrotation Yrotation
      JOINT lShin
      {
        OFFSET 0 -36.8199 0.73152
        CHANNELS 3 Zrotation Xrotation Yrotation
        JOINT lFoot
        {
          OFFSET -0.73152 -45.1104 -5.12064
          CHANNELS 3 Zrotation Xrotation Yrotation
          End Site
          {
            OFFSET 1.1221 -3.69964 12.103
          }
        }
      }
    }
  }
}
MOTION
Frames:	8
Frame Time:	0.03333
0.0 0.0 0.0 0.0 0.0 0.0 0.0 0.0 0.0 0.0 0.0 0.0 0.0 0.0 0.0 0.0 0.0 0.0 0.0 0.0 0.0 0.0 0.0 0.0 0.0 0.0 0.0 0.0 0.0 0.0 0.0 0.0 0.0 0.0 0.0 0.0 0.0 0.0 0.0 0.0 0.0 0.0 0.0 0.0 0.0 0.0 0.0 0.0 0.0 0.0 0.0 0.0 0.0 0.0 0.0 0.0 0.0 0.0 0.0 0.0 0.0 0.0 0.0 0.0 0.0 0.0 0.0 0.0 0.0 0.0 0.0 0.0 0.0 0.0 0.0 0.0 0.0 0.0 0.0 0.0 0.0 0.0 0.0 0.0 0.0 0.0 0.0 0.0 0.0 0.0 0.0 0.0 0.0 0.0 0.0 0.0 0.0 0.0 0.0 0.0 0.0 0.0 0.0 0.0 0.0 0.0 0.0 0.0 0.0 0.0 0.0 0.0 0.0 0.0 0.0 0.0 0.0 0.0 0.0 0.0 0.0 0.0 0.0 0.0 0.0 0.0 0.0 0.0 0.0 0.0 0.0 0.0
-0.1001 62.287499999999994 -0.0033000000000000004 179.849035 -41.292014 178.63469 0.669717 -0.052528 -152.774824 -3.42383 -12.103688 160.994859 9.181736 -4.171397 140.928512 12.041584 54.598997 165.527274 126.51712 -16.561153 32.22267 8.710979 -5.911817 -68.271126 74.90714 -24.902044 -6.098065 17.378108 -17.667903 7.547689 -3.370663 11.118118 156.196096 -4.4787 13.434578 -62.561916 18.716174 -19.28243 30.131504 28.765008 20.17609 178.424569 155.503797 40.139522 -156.684696 9.761645 -22.374132 104.242603 -166.48603 22.900881 -116.20371 7.638023 9.04378 -13.85224 87.978372 15.617992 -78.811431 -160.122135 25.937674 170.337743 -156.344668 29.821322 -70.571841 -152.241063 69.498571 -156.753195 -80.257368 -19.551683 1.587656 161.747192 12.664989 -169.042574 0.593755 -68.418317 -153.958433 15.412763 48.84853 36.379592 179.209635 3.12446 -74.863093 122.995507 -4.293835 -88.844605 -27.799994 -44.969699 -19.152514 141.844906 9.272818 -99.087838 177.011437 49.357716 -47.828774 -164.614808 70.932595 -35.257646 68.174486 39.196077 117.952044 -16.865856 19.933425 -14.12957 -30.774435 -4.807865 90.208067 43.473166 -55.244263 46.403086 -47.599491 19.346812 -108.587499 -2.881101 48.293834 -176.650585 -5.49613 -3.677751 -58.385267 75.195301 0.52613 -88.934113 -56.136001 -6.256609 -84.724266 -0.258072 58.161784 0.55847 -7.019989 -3.719027 -81.582628 34.481205 -59.672461 -147.793615
-0.5808 62.564600000000006 -0.6073000000000001 -9.51013 13.149149 -1.048784 8.523913 9.849706 -62.413748 -1.049899 -1.804992 67.451557 12.790563 10.342892 80.991786 -46.898274 -7.419572 -65.069493 49.550567 -28.704748 -58.006438 1.796641 -1.098802 -62.89618 -135.779805 -42.204138 -178.290614 105.384963 64.379147 -116.507676 161.147061 -62.253671 38.171511 161.836955 12.882692 145.581871 -168.674179 14.846787 87.107215 -126.272264 56.496814 113.705411 161.052118 -69.700085 -179.45833 11.922512 -25.668348 -30.047686 -173.516613 -7.195893 147.866839 22.729827 54.72171 2.953851 173.044477 7.782423 -151.654603 -40.894232 -13.897837 -57.053839 -151.370554 49.779134 152.747669 61.218353 -35.148159 5.51781 -0.164751 -0.247972 -6.552882 105.900485 -0.658334 -104.000478 -5.298127 5.916343 135.219169 178.231195 13.07323 -134.904723 170.687182 19.674664 -97.465701 143.188934 49.260105 -23.35975 139.846987 -21.111154 -108.42836 -22.053534 37.65582 -18.444929 153.89617 0.267333 -136.352197 143.602571 -42.821377 -144.509103 -75.728418 -63.725923 -54.992088 149.355684 43.308016 -128.930478 -163.147544 57.777251 13.069968 -169.433069 -3.912132 17.095554 104.406432 60.746567 56.116744 179.191237 48.314014 1.243615 -24.601028 57.346053 -43.77043 112.951523 40.506068 -18.469367 0.837097 -9.140872 3.08269 64.074014 -40.649345 -56.776384 -84.440879 0.980286 -97.202653 -43.689534 17.502614 174.176369
0.6515 62.7972 -0.8147 -10.269753 23.269481 -2.276738 2.218891 5.936452 -7.834908 7.59633 -2.812921 2.23464 7.230205 10.178349 71.39667 -23.3457 -4.365008 -52.051909 177.274263 -0.004912 0.206462 -3.495478 -0.865818 27.816154 8.794468 -11.297917 10.87052 -105.841939 -32.237537 -152.5588 -168.876279 7.54644 -90.96261 5.870519 -17.057129 -3.26746 169.568857 -21.834209 51.585706 -18.227914 36.051384 26.411393 9.850858 -62.863352 54.242605 175.026125 36.272465 -162.41347 -40.04941 -57.389074 -72.304854 57.652965 37.951934 42.688757 -127.855437 -0.458737 55.954682 -59.40285 -46.090221 151.591641 -26.330127 19.244691 41.893657 -157.036961 2.650242 -58.065273 -2.27549 28.731105 -0.510357 -90.243951 -3.124993 -126.29959 -169.799014 -31.447523 -51.46037 179.888223 -4.23029 -136.15751 178.73244 -6.975695 -79.725923 168.407285 19.049524 -114.506603 -134.176763 -51.837287 -44.111452 128.450495 -28.440844 -72.751196 -8.31119 17.126435 -17.101796 7.238605 38.658581 35.947184 108.811839 -39.756052 148.263739 -97.457893 -29.105152 -47.319522 77.234288 46.080871 174.944244 130.57581 52.82253 86.971747 -59.150267 48.939407 -58.587823 71.77471 1.760394 -70.568375 -49.834288 -36.435482 48.438399 -70.861749 -60.531323 15.616645 -78.021886 79.21033 -88.255145 -154.647514 22.855589 147.663025 74.806272 -64.884773 147.350556 -158.837517 78.253799 -123.232227
1.1838 62.4568 0.31870000000000004 -11.686241 24.506288 -3.435705 0.000318 8.807931 65.193136 -2.850981 -11.069941 -58.675106 -12.796388 27.85094 -88.333481 45.847108 20.848429 99.911239 -37.041312 -26.060088 69.274629 -10.991587 -4.162591 41.384205 -4.0817 -56.868932 -26.286049 -100.621287 -35.928764 -111.077137 -172.905204 -26.971896 -88.503063 -9.09347 -26.141997 -13.217868 -0.463271 -12.987875 6.120479 -25.039547 7.047493 83.690291 24.688447 -11.451685 35.351318 -113.915477 -51.032644 -168.762311 -123.517528 60.676716 110.468144 -9.870124 48.990772 -21.451404 -44.855327 20.294218 142.711616 -75.067042 36.571629 -145.225009 24.939797 -47.890067 30.284882 -115.791561 42.424113 101.623886 45.944455 -84.562395 64.858509 74.712376 -23.301178 -166.035497 106.453587 -7.45399 65.357024 -13.671324 -58.627148 0.052108 15.961335 -7.421403 -9.483255 78.759947 -61.941919 168.094912 137.685631 -23.07037 -118.591109 64.334796 -81.069564 169.136002 137.45222 3.008291 -134.788044 105.665757 -65.606206 171.21563 -178.602635 69.107168 178.34382 135.239341 40.38745 -133.211038 149.032237 35.629716 151.098492 8.73352 3.131547 2.281396 96.048361 29.470684 36.786161 -128.675106 31.637316 39.133 61.519027 32.436682 68.934154 -63.369309 7.986162 -155.222934 108.421793 70.99103 33.085786 -118.430894 -25.741904 -30.075831 57.30588 81.228979 20.531618 -174.760381 -79.425175 83.731491
1.3872 62.9659 1.4456 -14.801477 32.29483 -3.65012 4.948453 6.999431 110.831303 -9.315725 -2.228112 -94.661936 14.934806 15.461155 64.188496 -31.165179 -12.200542 -53.453012 -34.821732 -5.278169 16.723633 151.104146 -21.004702 71.471092 27.015269 75.868464 -22.046172 55.576609 -5.342877 42.319727 -176.083693 15.456736 50.721011 -159.812635 22.517571 132.993688 -174.155875 -7.434244 99.640132 129.228663 83.162823 166.349605 28.237537 -39.815894 23.965984 -60.330958 -80.603603 -135.528404 -154.13049 15.09114 131.578978 -127.529419 -76.31388 177.605002 -124.210944 -1.979883 -177.633633 52.659323 45.883476 -34.741304 3.499221 -44.987354 27.029074 -12.478631 14.99618 0.707624 150.514175 19.999491 -143.859363 169.595283 -11.797207 100.206749 177.295851 37.658242 -57.375207 176.326978 0.549964 -139.338507 42.976082 9.038694 -8.921036 -40.611283 -61.056216 64.402249 179.52707 -70.141962 -109.444631 31.503802 28.654536 -41.516739 -6.244277 -9.23231 9.977881 156.634805 0.618812 -87.673908 96.645244 -49.188048 99.219329 143.519783 71.613002 154.917062 30.044583 19.501869 -19.767399 19.481869 49.334103 -143.951199 15.278277 -2.194308 -5.404128 -35.775061 -13.324542 95.627876 56.435633 -11.06101 -71.874096 138.804877 -57.378944 44.614302 -97.905891 35.458788 -53.589176 169.40645 -7.365383 -34.854065 -86.704282 34.198401 21.968319 -18.709514 -79.400646 67.304564
1.7239 63.7407 2.3289 -15.37778 37.931909 -1.104205 11.840194 0.035166 -89.851485 3.296967 0.645914 102.750799 -6.288425 14.338841 -63.515563 33.254976 0.549585 77.042698 -14.708791 -0.052928 0.410076 130.133811 -9.497192 20.262103 -56.18617 -68.064045 -75.411414 91.897399 48.635264 -101.106094 -17.617276 21.352875 104.941755 -3.627555 -58.581364 -8.319857 -166.429275 -1.544597 96.427426 -155.495424 -19.94964 -177.485966 -127.172561 22.649441 85.394952 174.975244 -1.07496 87.561123 21.350245 -59.571091 4.498624 -135.55967 30.159995 112.884316 3.069519 39.827939 -1.294342 -140.640225 18.841954 124.802795 -150.227041 -57.691964 -125.372421 10.243748 37.130953 -30.499799 159.652781 -15.581845 -156.735771 62.94572 -10.309186 114.524378 -2.73132 41.423581 120.296033 -179.044949 -3.790745 -141.081586 -129.035486 -33.543272 -84.570424 172.740124 -56.586673 163.488237 78.068662 37.366929 -60.913552 170.67484 -69.653484 -97.780898 1.608202 -13.237409 10.033571 147.304293 0.524219 -100.250918 126.848712 -9.46488 161.689931 87.167092 -34.531604 157.252328 168.593403 -23.248451 141.3004 -90.554138 5.409726 114.295763 62.423867 11.60557 48.543381 -82.260531 38.381769 -7.999892 26.634835 53.201705 -99.883612 78.926531 20.230646 12.676149 31.806854 14.546865 29.105012 -21.25414 -82.113042 -15.981846 -91.834413 63.432889 2.440553 67.410467 -67.008813 150.341584
2.3077 64.9647 3.3764000000000003 -15.722518 41.126309 -1.251681 6.099966 -2.552809 72.894613 1.336693 -6.72124 -63.77385 -6.774717 13.698923 -79.093921 28.275018 5.478131 88.370417 -0.482987 0.003737 -0.886655 129.047456 9.599785 -19.989834 -6.60206 20.171041 -5.621637 -100.823723 -8.027225 -172.158383 173.517168 -17.975412 -81.571729 -13.289804 -32.944123 -6.869775 -40.126304 32.056253 15.108138 -55.140784 -41.783624 18.746078 -160.211585 -10.440153 109.285314 -171.913295 2.093674 108.18745 -35.535743 49.326796 28.021576 -10.459215 -1.622483 1.600745 -82.716824 -61.378844 -89.138456 -54.60739 -40.700445 -111.887954 -39.237014 -21.689731 2.664518 30.117231 -23.964424 -35.145596 88.38575 63.94847 -92.952433 78.298945 -0.102181 22.491828 -63.520549 14.9835 157.949104 161.516926 47.251074 -133.621018 160.474422 29.676263 -84.909437 -53.63848 -36.994254 -82.024667 92.873749 41.474921 -67.323238 39.675578 40.970135 -54.085682 173.359749 -55.195256 -157.377987 -5.045323 73.858584 -19.269558 123.934258 1.239106 178.889079 33.978955 -67.474875 115.155337 15.11041 -8.820782 -1.24868 -57.679723 -60.457806 -20.421861 11.698833 -14.472273 0.716089 -27.545309 7.781973 -73.927542 -58.150654 18.654673 -62.58664 23.684231 -2.913636 118.207021 -0.039811 8.831876 -5.257921 98.553839 -54.474768 179.116322 91.209689 0.144534 -40.350997 59.021767 -58.628192 -27.202825
